<svg width="195" height="22" viewBox="0 0 195 22" fill="none" xmlns="http://www.w3.org/2000/svg">
<path d="M0.0625 13.733V10.1875L12.4034 5.00568V8.88352L4.25568 11.9261L4.38352 11.7386V12.1903L4.25568 11.9943L12.4034 15.0455V18.9148L0.0625 13.733ZM20.3232 21.625L14.6982 0.727272H18.2521L23.8771 21.625H20.3232ZM38.5128 13.733L26.1719 18.9148V15.0455L34.3196 11.9943L34.2003 12.1903V11.7386L34.3196 11.9261L26.1719 8.88352V5.00568L38.5128 10.1875V13.733Z" fill="#E12726"/>
<path d="M47.0632 19V1.54545H51.282V8.92614H51.5121L57.282 1.54545H62.2507L56.0632 9.33523L62.3615 19H57.3161L52.9695 12.1392L51.282 14.2699V19H47.0632ZM69.0732 19.2472C67.7038 19.2472 66.522 18.9773 65.5277 18.4375C64.5391 17.892 63.7777 17.1165 63.2436 16.1108C62.7152 15.0994 62.451 13.8977 62.451 12.5057C62.451 11.1534 62.718 9.97159 63.2521 8.96023C63.7862 7.94318 64.5391 7.15341 65.5107 6.59091C66.4822 6.02273 67.6271 5.73864 68.9453 5.73864C69.8771 5.73864 70.7294 5.88352 71.5021 6.17329C72.2749 6.46307 72.9425 6.89205 73.505 7.46023C74.0675 8.02841 74.505 8.73011 74.8175 9.56534C75.13 10.3949 75.2862 11.3466 75.2862 12.4205V13.4602H63.9084V11.0398H71.4084C71.4027 10.5966 71.2976 10.2017 71.093 9.85511C70.8885 9.50852 70.6072 9.23864 70.2493 9.04545C69.897 8.84659 69.4908 8.74716 69.0305 8.74716C68.5646 8.74716 68.147 8.85227 67.7777 9.0625C67.4084 9.26705 67.1158 9.5483 66.8999 9.90625C66.6839 10.2585 66.5703 10.6591 66.5589 11.108V13.571C66.5589 14.1051 66.6641 14.5739 66.8743 14.9773C67.0845 15.375 67.3828 15.6847 67.7692 15.9062C68.1555 16.1278 68.6158 16.2386 69.1499 16.2386C69.5192 16.2386 69.8544 16.1875 70.1555 16.0852C70.4567 15.983 70.7152 15.8324 70.9311 15.6335C71.147 15.4347 71.3089 15.1903 71.4169 14.9006L75.2436 15.0114C75.0845 15.8693 74.7351 16.6165 74.1953 17.2528C73.6612 17.8835 72.9595 18.375 72.0902 18.7273C71.2209 19.0739 70.2152 19.2472 69.0732 19.2472ZM81.5824 11.5341V19H77.4148V5.90909H81.3778V8.3125H81.5227C81.8125 7.51136 82.3068 6.88352 83.0057 6.42898C83.7045 5.96875 84.5369 5.73864 85.5028 5.73864C86.4233 5.73864 87.2216 5.94602 87.8977 6.36079C88.5795 6.76989 89.108 7.34375 89.483 8.08239C89.8636 8.81534 90.0511 9.6733 90.0455 10.6562V19H85.8778V11.4744C85.8835 10.7472 85.6989 10.179 85.3239 9.76989C84.9545 9.3608 84.4403 9.15625 83.7812 9.15625C83.3438 9.15625 82.9574 9.25284 82.6222 9.44602C82.2926 9.63352 82.0369 9.90341 81.8551 10.2557C81.679 10.608 81.5881 11.0341 81.5824 11.5341ZM92.6598 19V16.6222L98.728 9.23295V9.14773H92.8729V5.90909H103.697V8.51705L98.0717 15.6761V15.7614H103.901V19H92.6598ZM106.594 19V5.90909H110.762V19H106.594ZM108.683 4.38352C108.097 4.38352 107.594 4.19034 107.174 3.80398C106.754 3.41193 106.543 2.94034 106.543 2.3892C106.543 1.84375 106.754 1.37784 107.174 0.991477C107.594 0.599431 108.097 0.403408 108.683 0.403408C109.273 0.403408 109.776 0.599431 110.191 0.991477C110.612 1.37784 110.822 1.84375 110.822 2.3892C110.822 2.94034 110.612 3.41193 110.191 3.80398C109.776 4.19034 109.273 4.38352 108.683 4.38352ZM119.534 19.2472C118.165 19.2472 116.983 18.9773 115.989 18.4375C115 17.892 114.239 17.1165 113.705 16.1108C113.176 15.0994 112.912 13.8977 112.912 12.5057C112.912 11.1534 113.179 9.97159 113.713 8.96023C114.247 7.94318 115 7.15341 115.972 6.59091C116.943 6.02273 118.088 5.73864 119.406 5.73864C120.338 5.73864 121.19 5.88352 121.963 6.17329C122.736 6.46307 123.403 6.89205 123.966 7.46023C124.528 8.02841 124.966 8.73011 125.278 9.56534C125.591 10.3949 125.747 11.3466 125.747 12.4205V13.4602H114.369V11.0398H121.869C121.864 10.5966 121.759 10.2017 121.554 9.85511C121.349 9.50852 121.068 9.23864 120.71 9.04545C120.358 8.84659 119.952 8.74716 119.491 8.74716C119.026 8.74716 118.608 8.85227 118.239 9.0625C117.869 9.26705 117.577 9.5483 117.361 9.90625C117.145 10.2585 117.031 10.6591 117.02 11.108V13.571C117.02 14.1051 117.125 14.5739 117.335 14.9773C117.545 15.375 117.844 15.6847 118.23 15.9062C118.616 16.1278 119.077 16.2386 119.611 16.2386C119.98 16.2386 120.315 16.1875 120.616 16.0852C120.918 15.983 121.176 15.8324 121.392 15.6335C121.608 15.4347 121.77 15.1903 121.878 14.9006L125.705 15.0114C125.545 15.8693 125.196 16.6165 124.656 17.2528C124.122 17.8835 123.42 18.375 122.551 18.7273C121.682 19.0739 120.676 19.2472 119.534 19.2472ZM133.032 19V1.54545H144.947V4.97159H137.251V8.55114H144.188V11.9858H137.251V19H133.032ZM151.239 1.54545V19H147.071V1.54545H151.239ZM157.582 19.2216C156.746 19.2216 156.005 19.0824 155.357 18.804C154.715 18.5199 154.207 18.0937 153.832 17.5256C153.462 16.9517 153.278 16.233 153.278 15.3693C153.278 14.642 153.406 14.0284 153.661 13.5284C153.917 13.0284 154.269 12.6222 154.718 12.3097C155.167 11.9972 155.684 11.7614 156.269 11.6023C156.854 11.4375 157.479 11.3267 158.144 11.2699C158.888 11.2017 159.488 11.1307 159.942 11.0568C160.397 10.9773 160.727 10.8665 160.931 10.7244C161.141 10.5767 161.246 10.3693 161.246 10.1023V10.0597C161.246 9.62216 161.096 9.28409 160.795 9.04545C160.494 8.80682 160.087 8.6875 159.576 8.6875C159.025 8.6875 158.582 8.80682 158.246 9.04545C157.911 9.28409 157.698 9.61364 157.607 10.0341L153.763 9.89773C153.877 9.10227 154.17 8.39205 154.641 7.76705C155.119 7.13636 155.772 6.64205 156.602 6.28409C157.437 5.92045 158.44 5.73864 159.61 5.73864C160.445 5.73864 161.215 5.83807 161.92 6.03693C162.624 6.23011 163.238 6.5142 163.761 6.8892C164.283 7.25852 164.687 7.71307 164.971 8.25284C165.261 8.79261 165.406 9.40909 165.406 10.1023V19H161.485V17.1761H161.383C161.15 17.6193 160.852 17.9943 160.488 18.3011C160.13 18.608 159.707 18.8381 159.218 18.9915C158.735 19.1449 158.19 19.2216 157.582 19.2216ZM158.869 16.4943C159.317 16.4943 159.721 16.4034 160.079 16.2216C160.442 16.0398 160.732 15.7898 160.948 15.4716C161.164 15.1477 161.272 14.7727 161.272 14.3466V13.1023C161.153 13.1648 161.008 13.2216 160.837 13.2727C160.673 13.3239 160.491 13.3722 160.292 13.4176C160.093 13.4631 159.888 13.5028 159.678 13.5369C159.468 13.571 159.266 13.6023 159.073 13.6307C158.681 13.6932 158.346 13.7898 158.067 13.9205C157.795 14.0511 157.585 14.2216 157.437 14.4318C157.295 14.6364 157.224 14.8807 157.224 15.1648C157.224 15.5966 157.377 15.9261 157.684 16.1534C157.996 16.3807 158.391 16.4943 158.869 16.4943ZM179.383 9.90625L175.556 10.0085C175.516 9.7358 175.408 9.49432 175.232 9.28409C175.056 9.06818 174.826 8.90057 174.542 8.78125C174.263 8.65625 173.94 8.59375 173.57 8.59375C173.087 8.59375 172.675 8.69034 172.335 8.88352C171.999 9.0767 171.835 9.33807 171.84 9.66761C171.835 9.9233 171.937 10.1449 172.147 10.3324C172.363 10.5199 172.746 10.6705 173.298 10.7841L175.82 11.2614C177.127 11.5114 178.099 11.9261 178.735 12.5057C179.377 13.0852 179.701 13.8523 179.707 14.8068C179.701 15.7045 179.434 16.4858 178.906 17.1506C178.383 17.8153 177.667 18.3324 176.758 18.7017C175.849 19.0653 174.809 19.2472 173.638 19.2472C171.769 19.2472 170.295 18.8636 169.215 18.0966C168.141 17.3239 167.528 16.2898 167.374 14.9943L171.491 14.892C171.582 15.3693 171.817 15.733 172.198 15.983C172.579 16.233 173.065 16.358 173.656 16.358C174.19 16.358 174.624 16.2585 174.96 16.0597C175.295 15.8608 175.465 15.5966 175.471 15.267C175.465 14.9716 175.335 14.7358 175.079 14.5597C174.823 14.3778 174.423 14.2358 173.877 14.1335L171.593 13.6989C170.281 13.4602 169.303 13.0199 168.661 12.3778C168.019 11.7301 167.701 10.9062 167.707 9.90625C167.701 9.03125 167.934 8.28409 168.406 7.66477C168.877 7.03977 169.548 6.5625 170.417 6.23295C171.286 5.90341 172.312 5.73864 173.494 5.73864C175.266 5.73864 176.664 6.1108 177.687 6.85511C178.71 7.59375 179.275 8.6108 179.383 9.90625ZM185.926 11.5341V19H181.759V1.54545H185.79V8.3125H185.935C186.23 7.50568 186.713 6.875 187.384 6.42045C188.06 5.96591 188.886 5.73864 189.864 5.73864C190.784 5.73864 191.585 5.94318 192.267 6.35227C192.949 6.75568 193.477 7.3267 193.852 8.06534C194.233 8.80398 194.42 9.66761 194.415 10.6562V19H190.247V11.4744C190.253 10.7472 190.071 10.179 189.702 9.76989C189.332 9.3608 188.813 9.15625 188.142 9.15625C187.705 9.15625 187.318 9.25284 186.983 9.44602C186.653 9.63352 186.395 9.90341 186.207 10.2557C186.026 10.608 185.932 11.0341 185.926 11.5341Z" fill="#DADADA"/>
</svg>
