<svg width="406" height="45" viewBox="0 0 406 45" fill="none" xmlns="http://www.w3.org/2000/svg">
<path d="M0.296875 28.027V20.6406L26.0071 9.84517V17.924L9.03267 24.2628L9.29901 23.8722V24.8132L9.03267 24.4048L26.0071 30.7614V38.8224L0.296875 28.027ZM42.5066 44.4688L30.7878 0.931816H38.1919L49.9107 44.4688H42.5066ZM80.4016 28.027L54.6914 38.8224V30.7614L71.6658 24.4048L71.4173 24.8132V23.8722L71.6658 24.2628L54.6914 17.924V9.84517L80.4016 20.6406V28.027Z" fill="#E12726"/>
<path d="M98.215 39V2.63636H107.004V18.0128H107.483L119.504 2.63636H129.856L116.965 18.8651L130.086 39H119.575L110.52 24.7067L107.004 29.1456V39H98.215ZM144.069 39.5149C141.216 39.5149 138.754 38.9527 136.683 37.8281C134.623 36.6918 133.037 35.076 131.924 32.9808C130.823 30.8738 130.273 28.3703 130.273 25.4702C130.273 22.6529 130.829 20.1908 131.942 18.0838C133.055 15.965 134.623 14.3196 136.647 13.1477C138.671 11.964 141.057 11.3722 143.803 11.3722C145.744 11.3722 147.52 11.674 149.129 12.2777C150.739 12.8814 152.13 13.7751 153.302 14.9588C154.474 16.1425 155.385 17.6044 156.036 19.3445C156.687 21.0727 157.013 23.0554 157.013 25.2926V27.4588H133.309V22.4162H148.934C148.922 21.4929 148.703 20.6702 148.277 19.9482C147.851 19.2261 147.265 18.6638 146.519 18.2614C145.785 17.8471 144.939 17.6399 143.98 17.6399C143.01 17.6399 142.14 17.8589 141.37 18.2969C140.601 18.723 139.991 19.3089 139.541 20.0547C139.092 20.7886 138.855 21.6231 138.831 22.5582V27.6896C138.831 28.8023 139.05 29.7789 139.488 30.6193C139.926 31.4479 140.548 32.093 141.352 32.5547C142.157 33.0163 143.116 33.2472 144.229 33.2472C144.998 33.2472 145.697 33.1406 146.324 32.9276C146.951 32.7145 147.49 32.4008 147.94 31.9865C148.39 31.5722 148.727 31.0632 148.952 30.4595L156.924 30.6903C156.593 32.4777 155.865 34.0343 154.74 35.3601C153.628 36.674 152.166 37.6979 150.355 38.4318C148.544 39.1539 146.448 39.5149 144.069 39.5149ZM170.13 23.446V39H161.447V11.7273H169.704V16.7344H170.006C170.609 15.0653 171.639 13.7573 173.095 12.8104C174.551 11.8516 176.285 11.3722 178.298 11.3722C180.215 11.3722 181.878 11.8042 183.287 12.6683C184.707 13.5206 185.808 14.7161 186.589 16.255C187.383 17.782 187.773 19.5694 187.761 21.6172V39H179.079V23.3217C179.091 21.8066 178.706 20.6229 177.925 19.7706C177.155 18.9183 176.084 18.4922 174.711 18.4922C173.799 18.4922 172.995 18.6934 172.296 19.0959C171.61 19.4865 171.077 20.0488 170.698 20.7827C170.331 21.5166 170.142 22.4044 170.13 23.446ZM193.208 39V34.0462L205.85 18.652V18.4744H193.652V11.7273H216.202V17.1605L204.483 32.0753V32.2528H216.628V39H193.208ZM222.238 39V11.7273H230.921V39H222.238ZM226.589 8.54901C225.369 8.54901 224.322 8.14654 223.446 7.34162C222.57 6.52486 222.132 5.54238 222.132 4.39418C222.132 3.25781 222.57 2.28717 223.446 1.48224C224.322 0.665481 225.369 0.2571 226.589 0.2571C227.82 0.2571 228.867 0.665481 229.731 1.48224C230.607 2.28717 231.045 3.25781 231.045 4.39418C231.045 5.54238 230.607 6.52486 229.731 7.34162C228.867 8.14654 227.82 8.54901 226.589 8.54901ZM249.196 39.5149C246.343 39.5149 243.881 38.9527 241.81 37.8281C239.75 36.6918 238.164 35.076 237.051 32.9808C235.95 30.8738 235.4 28.3703 235.4 25.4702C235.4 22.6529 235.956 20.1908 237.069 18.0838C238.182 15.965 239.75 14.3196 241.774 13.1477C243.798 11.964 246.183 11.3722 248.93 11.3722C250.871 11.3722 252.647 11.674 254.256 12.2777C255.866 12.8814 257.257 13.7751 258.429 14.9588C259.601 16.1425 260.512 17.6044 261.163 19.3445C261.814 21.0727 262.14 23.0554 262.14 25.2926V27.4588H238.436V22.4162H254.061C254.049 21.4929 253.83 20.6702 253.404 19.9482C252.978 19.2261 252.392 18.6638 251.646 18.2614C250.912 17.8471 250.066 17.6399 249.107 17.6399C248.137 17.6399 247.267 17.8589 246.497 18.2969C245.728 18.723 245.118 19.3089 244.668 20.0547C244.219 20.7886 243.982 21.6231 243.958 22.5582V27.6896C243.958 28.8023 244.177 29.7789 244.615 30.6193C245.053 31.4479 245.674 32.093 246.479 32.5547C247.284 33.0163 248.243 33.2472 249.356 33.2472C250.125 33.2472 250.824 33.1406 251.451 32.9276C252.078 32.7145 252.617 32.4008 253.067 31.9865C253.517 31.5722 253.854 31.0632 254.079 30.4595L262.051 30.6903C261.72 32.4777 260.992 34.0343 259.867 35.3601C258.754 36.674 257.293 37.6979 255.482 38.4318C253.67 39.1539 251.575 39.5149 249.196 39.5149ZM277.317 39V2.63636H302.139V9.77415H286.106V17.2315H300.559V24.3871H286.106V39H277.317ZM315.247 2.63636V39H306.565V2.63636H315.247ZM328.462 39.4616C326.722 39.4616 325.177 39.1716 323.828 38.5916C322.49 37.9998 321.431 37.112 320.649 35.9283C319.88 34.7327 319.495 33.2353 319.495 31.4361C319.495 29.9209 319.762 28.6425 320.294 27.6009C320.827 26.5592 321.561 25.7128 322.496 25.0618C323.431 24.4107 324.508 23.9195 325.727 23.5881C326.947 23.2448 328.249 23.014 329.634 22.8956C331.184 22.7536 332.433 22.6056 333.38 22.4517C334.327 22.286 335.014 22.0552 335.44 21.7592C335.878 21.4515 336.097 21.0194 336.097 20.4631V20.3743C336.097 19.4628 335.783 18.7585 335.156 18.2614C334.528 17.7642 333.682 17.5156 332.617 17.5156C331.468 17.5156 330.545 17.7642 329.847 18.2614C329.148 18.7585 328.704 19.4451 328.515 20.321L320.507 20.0369C320.744 18.3797 321.354 16.9001 322.336 15.598C323.33 14.2841 324.692 13.2543 326.42 12.5085C328.16 11.7509 330.249 11.3722 332.688 11.3722C334.428 11.3722 336.032 11.5793 337.499 11.9936C338.967 12.3961 340.246 12.9879 341.335 13.7692C342.424 14.5386 343.264 15.4856 343.856 16.6101C344.46 17.7346 344.762 19.0189 344.762 20.4631V39H336.594V35.2003H336.381C335.896 36.1236 335.274 36.9048 334.517 37.544C333.771 38.1832 332.889 38.6626 331.871 38.9822C330.865 39.3018 329.728 39.4616 328.462 39.4616ZM331.143 33.7798C332.078 33.7798 332.919 33.5904 333.664 33.2116C334.422 32.8329 335.026 32.312 335.475 31.6491C335.925 30.9744 336.15 30.1932 336.15 29.3054V26.7131C335.901 26.8433 335.6 26.9616 335.244 27.0682C334.901 27.1747 334.522 27.2753 334.108 27.37C333.694 27.4647 333.268 27.5476 332.83 27.6186C332.392 27.6896 331.972 27.7547 331.569 27.8139C330.752 27.9441 330.054 28.1454 329.474 28.4176C328.906 28.6899 328.468 29.045 328.16 29.483C327.864 29.9091 327.716 30.4181 327.716 31.0099C327.716 31.9096 328.036 32.5961 328.675 33.0696C329.326 33.5431 330.149 33.7798 331.143 33.7798ZM373.881 20.0547L365.909 20.2678C365.826 19.6996 365.601 19.1965 365.234 18.7585C364.867 18.3087 364.387 17.9595 363.796 17.7109C363.216 17.4505 362.541 17.3203 361.771 17.3203C360.765 17.3203 359.907 17.5215 359.197 17.924C358.499 18.3265 358.155 18.871 358.167 19.5575C358.155 20.0902 358.368 20.5518 358.806 20.9425C359.256 21.3331 360.055 21.6468 361.203 21.8835L366.459 22.8778C369.182 23.3987 371.206 24.2628 372.531 25.4702C373.869 26.6776 374.544 28.2756 374.556 30.2642C374.544 32.1345 373.987 33.7621 372.887 35.147C371.798 36.532 370.306 37.6091 368.412 38.3786C366.518 39.1361 364.352 39.5149 361.914 39.5149C358.019 39.5149 354.947 38.7159 352.698 37.1179C350.461 35.508 349.183 33.3537 348.863 30.6548L357.439 30.4418C357.628 31.4361 358.12 32.1937 358.913 32.7145C359.706 33.2353 360.718 33.4957 361.949 33.4957C363.062 33.4957 363.967 33.2886 364.666 32.8743C365.364 32.46 365.719 31.9096 365.731 31.223C365.719 30.6075 365.447 30.1162 364.914 29.7493C364.382 29.3705 363.547 29.0746 362.411 28.8615L357.652 27.956C354.918 27.4588 352.882 26.5414 351.544 25.2038C350.207 23.8544 349.544 22.138 349.556 20.0547C349.544 18.2318 350.029 16.6752 351.012 15.3849C351.994 14.0829 353.391 13.0885 355.202 12.402C357.013 11.7154 359.15 11.3722 361.612 11.3722C365.305 11.3722 368.217 12.1475 370.347 13.6982C372.478 15.237 373.656 17.3558 373.881 20.0547ZM387.513 23.446V39H378.83V2.63636H387.229V16.7344H387.531C388.146 15.0535 389.152 13.7396 390.549 12.7926C391.958 11.8456 393.68 11.3722 395.716 11.3722C397.634 11.3722 399.303 11.7983 400.723 12.6506C402.143 13.491 403.244 14.6806 404.026 16.2195C404.819 17.7583 405.209 19.5575 405.197 21.6172V39H396.515V23.3217C396.527 21.8066 396.148 20.6229 395.379 19.7706C394.609 18.9183 393.526 18.4922 392.129 18.4922C391.218 18.4922 390.413 18.6934 389.714 19.0959C389.028 19.4865 388.489 20.0488 388.099 20.7827C387.72 21.5166 387.525 22.4044 387.513 23.446Z" fill="#33293F"/>
</svg>
