<svg width="126" height="22" viewBox="0 0 126 22" fill="none" xmlns="http://www.w3.org/2000/svg">
<path d="M0.0625 13.733V10.1875L12.4034 5.00568V8.88352L4.25568 11.9261L4.38352 11.7386V12.1903L4.25568 11.9943L12.4034 15.0455V18.9148L0.0625 13.733ZM20.3232 21.625L14.6982 0.727272H18.2521L23.8771 21.625H20.3232ZM38.5128 13.733L26.1719 18.9148V15.0455L34.3196 11.9943L34.2003 12.1903V11.7386L34.3196 11.9261L26.1719 8.88352V5.00568L38.5128 10.1875V13.733Z" fill="#E12726"/>
<path d="M56.4979 6.77841C56.4411 6.15341 56.1882 5.66761 55.7393 5.32102C55.2962 4.96875 54.6626 4.79261 53.8388 4.79261C53.2933 4.79261 52.8388 4.86364 52.4751 5.00568C52.1115 5.14773 51.8388 5.34375 51.657 5.59375C51.4751 5.83807 51.3814 6.11932 51.3757 6.4375C51.3643 6.69886 51.4155 6.92898 51.5291 7.12784C51.6484 7.3267 51.8189 7.50284 52.0405 7.65625C52.2678 7.80398 52.5405 7.93466 52.8587 8.0483C53.1768 8.16193 53.5348 8.26136 53.9325 8.34659L55.4325 8.6875C56.2962 8.875 57.0575 9.125 57.7166 9.4375C58.3814 9.75 58.9382 10.1222 59.3871 10.554C59.8416 10.9858 60.1854 11.483 60.4183 12.0455C60.6513 12.608 60.7706 13.2386 60.7763 13.9375C60.7706 15.0398 60.4922 15.9858 59.9411 16.7756C59.3899 17.5653 58.5973 18.1705 57.5632 18.5909C56.5348 19.0114 55.2933 19.2216 53.8388 19.2216C52.3786 19.2216 51.1058 19.0028 50.0206 18.5653C48.9354 18.1278 48.0916 17.4631 47.4893 16.571C46.8871 15.679 46.5774 14.5511 46.5604 13.1875H50.6001C50.6342 13.75 50.7848 14.2188 51.0518 14.5938C51.3189 14.9688 51.6854 15.2528 52.1513 15.446C52.6229 15.6392 53.1683 15.7358 53.7876 15.7358C54.3558 15.7358 54.8388 15.6591 55.2365 15.5057C55.6399 15.3523 55.9496 15.1392 56.1655 14.8665C56.3814 14.5937 56.4922 14.2812 56.4979 13.929C56.4922 13.5994 56.3899 13.3182 56.1911 13.0852C55.9922 12.8466 55.6854 12.642 55.2706 12.4716C54.8615 12.2955 54.3388 12.1335 53.7024 11.9858L51.8786 11.5597C50.3672 11.2131 49.1768 10.6534 48.3075 9.88068C47.4382 9.10227 47.0064 8.05114 47.0121 6.72727C47.0064 5.64773 47.2962 4.7017 47.8814 3.8892C48.4666 3.0767 49.2763 2.44318 50.3104 1.98864C51.3445 1.53409 52.5234 1.30682 53.8473 1.30682C55.1996 1.30682 56.3729 1.53693 57.3672 1.99716C58.3672 2.4517 59.1428 3.09091 59.6939 3.91477C60.245 4.73864 60.5263 5.69318 60.5376 6.77841H56.4979ZM69.0178 19.2472C67.6371 19.2472 66.4524 18.9631 65.4638 18.3949C64.4808 17.8267 63.7251 17.0369 63.1967 16.0256C62.6683 15.0085 62.4041 13.8324 62.4041 12.4972C62.4041 11.1562 62.6683 9.98011 63.1967 8.96875C63.7308 7.9517 64.4893 7.15909 65.4723 6.59091C66.4609 6.02273 67.6399 5.73864 69.0092 5.73864C70.2195 5.73864 71.2734 5.95739 72.1712 6.39489C73.0746 6.83239 73.7791 7.4517 74.2848 8.25284C74.7962 9.0483 75.0661 9.98295 75.0945 11.0568H71.1996C71.12 10.3864 70.8928 9.8608 70.5178 9.48011C70.1484 9.09943 69.6655 8.90909 69.0689 8.90909C68.5859 8.90909 68.1626 9.04545 67.799 9.31818C67.4354 9.58523 67.1513 9.98295 66.9467 10.5114C66.7479 11.0341 66.6484 11.6818 66.6484 12.4545C66.6484 13.2273 66.7479 13.8807 66.9467 14.4148C67.1513 14.9432 67.4354 15.3437 67.799 15.6165C68.1626 15.8835 68.5859 16.017 69.0689 16.017C69.4553 16.017 69.7962 15.9347 70.0916 15.7699C70.3928 15.6051 70.6399 15.3636 70.8331 15.0455C71.0263 14.7216 71.1484 14.3295 71.1996 13.8693H75.0945C75.0547 14.9489 74.7848 15.892 74.2848 16.6989C73.7905 17.5057 73.0945 18.1335 72.1967 18.5824C71.3047 19.0256 70.245 19.2472 69.0178 19.2472ZM81.3949 11.5341V19H77.2273V1.54545H81.2585V8.3125H81.4034C81.6989 7.50568 82.1818 6.875 82.8523 6.42045C83.5284 5.96591 84.3551 5.73864 85.3324 5.73864C86.2528 5.73864 87.054 5.94318 87.7358 6.35227C88.4176 6.75568 88.946 7.3267 89.321 8.06534C89.7017 8.80398 89.8892 9.66761 89.8835 10.6562V19H85.7159V11.4744C85.7216 10.7472 85.5398 10.179 85.1705 9.76989C84.8011 9.3608 84.2813 9.15625 83.6108 9.15625C83.1733 9.15625 82.7869 9.25284 82.4517 9.44602C82.1222 9.63352 81.8636 9.90341 81.6761 10.2557C81.4943 10.608 81.4006 11.0341 81.3949 11.5341ZM96.1754 19.2216C95.3402 19.2216 94.5987 19.0824 93.951 18.804C93.3089 18.5199 92.8004 18.0937 92.4254 17.5256C92.0561 16.9517 91.8714 16.233 91.8714 15.3693C91.8714 14.642 91.9993 14.0284 92.255 13.5284C92.5107 13.0284 92.8629 12.6222 93.3118 12.3097C93.7607 11.9972 94.2777 11.7614 94.8629 11.6023C95.4482 11.4375 96.0732 11.3267 96.7379 11.2699C97.4822 11.2017 98.0817 11.1307 98.5362 11.0568C98.9908 10.9773 99.3203 10.8665 99.5249 10.7244C99.7351 10.5767 99.8402 10.3693 99.8402 10.1023V10.0597C99.8402 9.62216 99.6896 9.28409 99.3885 9.04545C99.0874 8.80682 98.6811 8.6875 98.1697 8.6875C97.6186 8.6875 97.1754 8.80682 96.8402 9.04545C96.505 9.28409 96.2919 9.61364 96.201 10.0341L92.3572 9.89773C92.4709 9.10227 92.7635 8.39205 93.2351 7.76705C93.7124 7.13636 94.3658 6.64205 95.1953 6.28409C96.0305 5.92045 97.0334 5.73864 98.2038 5.73864C99.0391 5.73864 99.8089 5.83807 100.513 6.03693C101.218 6.23011 101.832 6.5142 102.354 6.8892C102.877 7.25852 103.281 7.71307 103.565 8.25284C103.854 8.79261 103.999 9.40909 103.999 10.1023V19H100.079V17.1761H99.9766C99.7436 17.6193 99.4453 17.9943 99.0817 18.3011C98.7237 18.608 98.3004 18.8381 97.8118 18.9915C97.3288 19.1449 96.7834 19.2216 96.1754 19.2216ZM97.4624 16.4943C97.9112 16.4943 98.3146 16.4034 98.6726 16.2216C99.0362 16.0398 99.326 15.7898 99.5419 15.4716C99.7578 15.1477 99.8658 14.7727 99.8658 14.3466V13.1023C99.7464 13.1648 99.6016 13.2216 99.4311 13.2727C99.2663 13.3239 99.0845 13.3722 98.8857 13.4176C98.6868 13.4631 98.4822 13.5028 98.272 13.5369C98.0618 13.571 97.8601 13.6023 97.6669 13.6307C97.2749 13.6932 96.9396 13.7898 96.6612 13.9205C96.3885 14.0511 96.1783 14.2216 96.0305 14.4318C95.8885 14.6364 95.8175 14.8807 95.8175 15.1648C95.8175 15.5966 95.9709 15.9261 96.2777 16.1534C96.5902 16.3807 96.9851 16.4943 97.4624 16.4943ZM106.548 19V5.90909H110.596V8.29545H110.732C110.971 7.43182 111.36 6.78977 111.9 6.36932C112.44 5.94318 113.067 5.73011 113.783 5.73011C113.977 5.73011 114.175 5.74432 114.38 5.77273C114.585 5.79545 114.775 5.83239 114.951 5.88352V9.50568C114.752 9.4375 114.491 9.38352 114.167 9.34375C113.849 9.30398 113.565 9.28409 113.315 9.28409C112.82 9.28409 112.374 9.39489 111.977 9.61648C111.585 9.83239 111.275 10.1364 111.048 10.5284C110.826 10.9148 110.715 11.3693 110.715 11.892V19H106.548ZM124.699 5.90909V8.97727H116.278V5.90909H124.699ZM118.034 19V5.24432C118.034 4.23295 118.224 3.39489 118.605 2.73011C118.986 2.05966 119.514 1.55966 120.19 1.23011C120.866 0.894886 121.648 0.727272 122.534 0.727272C123.114 0.727272 123.659 0.772727 124.17 0.863636C124.688 0.948864 125.071 1.02557 125.321 1.09375L124.656 4.14489C124.503 4.09375 124.315 4.05114 124.094 4.01704C123.878 3.98295 123.673 3.96591 123.48 3.96591C122.991 3.96591 122.656 4.07386 122.474 4.28977C122.293 4.50568 122.202 4.80114 122.202 5.17614V19H118.034Z" fill="white"/>
</svg>
